<svg viewBox="-10.262626262626327 128.5625 2052.525252525252 1928.4375" xmlns="http://www.w3.org/2000/svg" xmlns:blush="http://design.blush" overflow="visible" xmlns:xlink="http://www.w3.org/1999/xlink" width="2052.525252525252" height="1928.4375"><g id="Master/Spot Ilustrations/UI Windows" stroke="none" stroke-width="1" fill="none" fill-rule="evenodd" blush:viewBox="-12.340080971659972 133.70500000000015 2056.68016194332 1923.2949999999994" blush:i="0"><g id="Outdoor Plants" transform="translate(1183.000000, 1085.000000) scale(1 1)" blush:width="751" blush:height="965" blush:component="Outdoor Plants" blush:i="0.0" blush:value="Bush" blush:viewBox="97.9775064267352 685.1499999999999 559.87146529563 279.84999999999997"><g id="Outdoor Plants/Bush" stroke="none" stroke-width="1" fill="none" fill-rule="evenodd" blush:viewBox="97.9775064267352 685.1499999999999 559.87146529563 279.84999999999997" blush:i="0.0.0"><g id="Group-16-Copy" transform="translate(98.000000, 689.000000)" blush:i="0.0.0.0"><path d="M2.39500229,275.969448 C4.95578,275.610539 7.81571397,276.244612 10.3764917,275.885703 L558,275.885703 C557.748709,255.057012 545.866222,224.872758 527.67752,214.67974 C509.500785,204.498686 485.903338,204.821704 468.013793,215.46934 C476.079046,172.735231 481.918576,128.086941 470.155752,86.2022508 C458.41686,44.3175605 424.971188,5.75876099 381.773022,0.590470148 C341.267263,-4.24283888 301.934196,21.2038153 278.611973,54.6661058 C255.28975,88.1283962 244.831246,128.637268 234.815494,168.165122 C235.952288,149.465959 226.678444,130.479668 211.253946,119.855959 C195.817483,109.23225 174.768847,107.365923 157.704973,115.094432 C138.654702,123.720214 125.982442,142.814177 120.107013,162.889159 C114.24355,182.976104 114.255516,204.223522 114.315347,225.135958 C102.109771,197.476031 66.8212974,182.581304 38.4971814,193.133231 C10.1610992,203.697122 -6.48395591,247.077267 2.39500229,275.969448" id="Fill-1" fill="#F67A49" blush:i="0.0.0.0.0"/><path d="M118.397008,275.974803 C119.891241,275.760692 121.552828,276.153228 123.047061,275.927223 L442,275.927223 C441.856554,263.85377 434.923314,246.356186 424.344146,240.456253 C413.753025,234.556319 400.018038,234.734745 389.59427,240.920159 C394.292138,216.142818 397.687034,190.247344 390.849426,165.969594 C383.999863,141.691845 364.515068,119.341089 339.352189,116.343542 C315.76722,113.536316 292.863621,128.286149 279.27208,147.686938 C265.692493,167.087727 259.607977,190.556615 253.762539,213.478332 C254.420001,202.641962 249.02881,191.639062 240.039506,185.489334 C231.050202,179.32771 218.785539,178.233367 208.85188,182.717792 C197.758697,187.725599 190.37121,198.787974 186.952406,210.42131 C183.545555,222.066541 183.545555,234.389789 183.581417,246.498926 C176.480823,230.476325 155.92018,221.840536 139.423851,227.966474 C122.915568,234.080518 113.220986,259.226605 118.397008,275.974803" id="Fill-4" fill="#FFB201" blush:i="0.0.0.0.1"/></g></g></g><g id="Chair" transform="translate(76.125000, 1255.000000) scale(1 1)" blush:width="700" blush:height="800" blush:component="Chair" blush:i="0.1" blush:value="Stool" blush:viewBox="214.15525114155253 396 271.6894977168952 403.9999999999999"><g id="Chair/Stool" stroke="none" stroke-width="1" fill="none" fill-rule="evenodd" blush:viewBox="214.15525114155253 396 271.6894977168952 403.9999999999999" blush:i="0.1.0"><g id="Group" transform="translate(249.000000, 425.000000)" fill="#8E2420" blush:i="0.1.0.0"><path d="M32,0.639462324 L21.361,173.639462 L181.639,173.639462 L171,0.639462324 L189,0.639462324 L195.476,173.639462 L196,173.639462 L196,186.639462 L195.963,186.639462 L203,374.639462 L194,374.639462 L182.439,186.639462 L20.561,186.639462 L9,374.639462 L0,374.639462 L14,0.639462324 L32,0.639462324 Z" id="Combined-Shape" blush:i="0.1.0.0.0"/></g><path d="M233.392254,403.051901 L352.708336,399.021055 C353.123705,399.007023 353.539436,399.00738 353.95478,399.022127 L466.638699,403.023039 C476.325148,403.366962 484,411.319151 484,421.011704 L484,430.639462 C484,440.580588 475.941125,448.639462 466,448.639462 L234,448.639462 C224.058875,448.639462 216,440.580588 216,430.639462 L216,421.041638 C216,411.337076 223.693225,403.379563 233.392254,403.051901 Z" id="Rectangle" fill="#FF0057" blush:i="0.1.0.1"/></g></g><g id="Floor" transform="translate(1016.500000, 2051.750000) scale(1, -1) translate(-1016.500000, -2051.750000) translate(0.000000, 2050.250000)" fill="#090E2B" fill-rule="nonzero" blush:i="0.2"><path d="M0.625861326,-1.99999989 L1016.50086,-1.74999989 C1018.43386,-1.7495242 1020,-0.182135239 1020,1.75086133 C1020,3.61942467 1018.53489,5.14562732 1016.69118,5.24486829 L1016.49914,5.24999989 L0.624138674,5.00000011 C-1.30885789,4.9995242 -2.875,3.43213524 -2.875,1.49913867 C-2.875,-0.369424673 -1.40988682,-1.89562732 0.433824855,-1.99486829 L0.625861326,-1.99999989 Z" id="Path-4-Copy" blush:i="0.2.0"/><path d="M2032.5,-2.75 C2034.433,-2.75 2036,-1.18299662 2036,0.75 C2036,2.6185634 2034.53572,4.14512645 2032.69204,4.24482114 L2032.5,4.25 L1339.5,4.25 C1337.567,4.25 1336,2.68299662 1336,0.75 C1336,-1.1185634 1337.46428,-2.64512645 1339.30796,-2.74482114 L1339.5,-2.75 L2032.5,-2.75 Z" id="Path-4-Copy-2" blush:i="0.2.1"/></g><g id="UI Elements" transform="translate(282.000000, 117.000000) scale(1 1)" blush:width="1101" blush:height="811" blush:component="UI Elements" blush:i="0.3" blush:value="UI Card 1" blush:viewBox="0 14.324728260869506 1100.9999999999998 798.8790760869566"><g id="UI Elements/UI Card 1" stroke="none" stroke-width="1" fill="none" fill-rule="evenodd" blush:viewBox="0 14.324728260869506 1100.9999999999998 798.8790760869566" blush:i="0.3.0"><g id="userinterface" transform="translate(1.000000, 17.000000)" blush:i="0.3.0.0"><path d="M1072.3832,793.4326 L68.6102,793.4326 C55.8452,793.4326 45.4982,783.0856 45.4982,770.3206 L45.4982,61.6156 C45.4982,48.8506 55.8452,38.5006 68.6102,38.5006 L1072.3832,38.5006 C1085.1482,38.5006 1095.4952,48.8506 1095.4952,61.6156 L1095.4952,770.3206 C1095.4952,783.0856 1085.1482,793.4326 1072.3832,793.4326 Z" id="Stroke-1-Copy" fill="#090E2B" blush:i="0.3.0.0.0"/><path d="M1029.885,757.932 L26.112,757.932 C13.347,757.932 3,747.585 3,734.82 L3,26.115 C3,13.35 13.347,3 26.112,3 L1029.885,3 C1042.65,3 1052.997,13.35 1052.997,26.115 L1052.997,734.82 C1052.997,747.585 1042.65,757.932 1029.885,757.932 Z" id="Stroke-1" fill="#FFF" blush:i="0.3.0.0.1"/><path d="M1029.885,4.54747351e-13 L26.112,4.54747351e-13 C11.6905975,4.54747351e-13 0,11.6926939 0,26.115 L0,734.82 C0,749.241854 11.6901458,760.932 26.112,760.932 L1029.885,760.932 C1044.30685,760.932 1055.997,749.241854 1055.997,734.82 L1055.997,26.115 C1055.997,11.6926939 1044.3064,4.54747351e-13 1029.885,4.54747351e-13 Z M26.112,6 L1029.885,6 C1040.99245,6 1049.997,15.0061616 1049.997,26.115 L1049.997,734.82 C1049.997,745.928146 1040.99315,754.932 1029.885,754.932 L26.112,754.932 C15.0038542,754.932 6,745.928146 6,734.82 L6,26.115 C6,15.0061616 15.0045468,6 26.112,6 Z" id="Stroke-1-Copy-2" fill="#090E2B" fill-rule="nonzero" blush:i="0.3.0.0.2"/><path d="M617.1762,372.0626 L197.7822,372.0626 C160.6212,372.0626 130.4982,341.9396 130.4982,304.7786 C130.4982,267.6236 160.6212,237.5006 197.7822,237.5006 L617.1762,237.5006 C654.3342,237.5006 684.4572,267.6236 684.4572,304.7786 C684.4572,341.9396 654.3342,372.0626 617.1762,372.0626 Z" id="Stroke-5" fill="#FFB201" blush:i="0.3.0.0.3"/><path d="M854.382,370.2114 L854.382,370.2114 C817.224,370.2114 787.098,340.0884 787.098,302.9274 C787.098,265.7724 817.224,235.6494 854.382,235.6494 C891.54,235.6494 921.663,265.7724 921.663,302.9274 C921.663,340.0884 891.54,370.2114 854.382,370.2114 Z" id="Stroke-7" fill="#C7D2F2" blush:i="0.3.0.0.4"/><g id="cross" transform="translate(945.572500, 53.129500)" fill="#000" fill-rule="nonzero" blush:i="0.3.0.0.5"><path d="M43.8180195,1.81801948 C45.5753788,0.0606601718 48.4246212,0.0606601718 50.1819805,1.81801948 C51.8844223,3.52046132 51.9376237,6.24760984 50.3415844,8.01409585 L50.1819805,8.18198052 L8.18198052,50.1819805 C6.4246212,51.9393398 3.5753788,51.9393398 1.81801948,50.1819805 C0.11557765,48.4795387 0.062376343,45.7523902 1.65841556,43.9859042 L1.81801948,43.8180195 L43.8180195,1.81801948 Z" id="Stroke-9" blush:i="0.3.0.0.5.0"/><path d="M1.81801948,1.81801948 C3.52046132,0.11557765 6.24760984,0.062376343 8.01409585,1.65841556 L8.18198052,1.81801948 L50.1819805,43.8180195 C51.9393398,45.5753788 51.9393398,48.4246212 50.1819805,50.1819805 C48.4795387,51.8844223 45.7523902,51.9376237 43.9859042,50.3415844 L43.8180195,50.1819805 L1.81801948,8.18198052 C0.0606601718,6.4246212 0.0606601718,3.5753788 1.81801948,1.81801948 Z" id="Stroke-11" blush:i="0.3.0.0.5.1"/></g><path d="M727.2462,457.5006 C737.187325,457.5006 745.2462,465.559475 745.2462,475.5006 C745.2462,485.331269 737.365417,493.321282 727.576865,493.497624 L727.2462,493.5006 L148.4982,493.5006 C138.557075,493.5006 130.4982,485.441725 130.4982,475.5006 C130.4982,465.669931 138.378983,457.679918 148.167535,457.503576 L148.4982,457.5006 L727.2462,457.5006 Z" id="Stroke-13" fill="#C7D2F2" fill-rule="nonzero" blush:i="0.3.0.0.6"/><path d="M479.0502,564.5006 C488.991325,564.5006 497.0502,572.559475 497.0502,582.5006 C497.0502,592.331269 489.169417,600.321282 479.380865,600.497624 L479.0502,600.5006 L148.4982,600.5006 C138.557075,600.5006 130.4982,592.441725 130.4982,582.5006 C130.4982,572.669931 138.378983,564.679918 148.167535,564.503576 L148.4982,564.5006 L479.0502,564.5006 Z" id="Stroke-15" fill="#C7D2F2" fill-rule="nonzero" blush:i="0.3.0.0.7"/></g></g></g><g id="UI Elements" transform="translate(833.000000, 623.000000) scale(1 1)" blush:width="1101" blush:height="811" blush:component="UI Elements" blush:i="0.4" blush:value="Graph 1" blush:viewBox="71.56500000000005 52.89130434782612 957.8700000000002 705.2173913043478"><g id="UI Elements/Graph 1" stroke="none" stroke-width="1" fill="none" fill-rule="evenodd" blush:viewBox="71.56500000000005 52.89130434782612 957.8700000000002 705.2173913043478" blush:i="0.4.0"><g id="Interfae-Box-2" transform="translate(74.000000, 54.000000)" blush:i="0.4.0.0"><rect id="Rectangle-Copy-5" fill="#090E2B" x="48" y="36" width="903" height="664" rx="64" blush:i="0.4.0.0.0"/><rect id="Rectangle-Copy" fill="#FFF" x="3" y="3" width="903" height="664" rx="64" blush:i="0.4.0.0.1"/><path d="M842,0 L67,0 C29.9969218,0 0,29.9969218 0,67 L0,603 C0,640.003078 29.9969218,670 67,670 L842,670 C879.003078,670 909,640.003078 909,603 L909,67 C909,29.9969218 879.003078,0 842,0 Z M67,6 L842,6 C875.68937,6 903,33.3106303 903,67 L903,603 C903,636.68937 875.68937,664 842,664 L67,664 C33.3106303,664 6,636.68937 6,603 L6,67 C6,33.3106303 33.3106303,6 67,6 Z" id="Rectangle-Copy-2" fill="#090E2B" fill-rule="nonzero" blush:i="0.4.0.0.2"/><path d="M673.652207,196.061892 C725.00645,183.450641 772.647582,240.93242 818.391391,365.938113 C819.53014,369.050011 817.930586,372.495842 814.818687,373.634591 C811.706789,374.77334 808.260958,373.173786 807.122209,370.061887 C763.365428,250.486217 719.224115,197.227172 676.514061,207.715638 C653.029605,213.482802 633.544648,228.317463 615.50167,252.517239 L614.256991,254.199974 C601.505445,271.579633 592.03819,288.909152 573.748724,326.316838 L567.518035,339.080312 C548.883429,377.093389 539.188692,394.511108 525.293009,412.958504 C505.414913,439.34793 483.31028,455.718327 456.236366,461.728764 C436.921829,466.016612 421.1782,458.232532 407.891528,440.305106 L407.489653,439.758748 C397.832146,426.529971 390.901407,411.491459 378.693953,380.142646 L374.912173,370.411723 C363.259876,340.542313 356.421447,325.666408 347.328808,312.632527 C335.853283,296.18289 323.479895,288.462539 308.325917,289.378699 C252.58721,292.748478 192.546484,355.571595 129.337009,478.620265 C127.822868,481.567814 124.205954,482.72982 121.258406,481.21568 C118.310857,479.701539 117.148851,476.084625 118.662991,473.137077 C183.658283,346.611991 246.260115,281.109083 307.601758,277.400569 C327.296605,276.209884 343.195562,285.995214 356.760264,305.18243 L357.170602,305.766737 C366.788118,319.553003 373.7892,334.631431 385.347233,364.145873 L390.576767,377.584411 C401.83789,406.3973 408.399469,420.546673 416.91497,432.316137 L417.181723,432.683171 C427.976656,447.469987 439.337483,453.188184 453.63567,450.013971 C477.606383,444.692448 497.417079,430.02091 515.708027,405.738522 L516.970246,404.049124 C529.761489,386.785973 539.264869,369.500642 557.378277,332.501458 L563.596726,319.761294 C582.202997,281.752737 591.841212,264.2714 605.445769,245.930132 L605.881319,245.344454 C625.460147,219.084752 647.152481,202.569527 673.652207,196.061892 Z" id="Path-9" fill="#FFB201" fill-rule="nonzero" blush:i="0.4.0.0.3"/><path d="M781.460434,208.362654 C782.299015,205.156808 785.577671,203.237761 788.783517,204.076343 C791.989362,204.914924 793.908409,208.19358 793.069828,211.399425 C755.865734,353.628422 708.054876,420.407249 647.872525,408.893115 C621.818313,403.908403 603.61089,404.829982 590.082856,410.798636 C579.665716,415.394744 572.383618,422.267538 562.160355,435.880495 L560.977924,437.467452 L554.884658,445.787282 C552.262038,449.355987 550.157275,452.139191 548.000044,454.856711 C539.000894,466.193172 530.125211,474.884446 519.015099,482.393565 C505.576907,491.476191 489.491953,498.227654 469.678748,502.626207 C451.420806,506.679489 435.763656,504.612783 421.299351,497.082719 C410.531188,491.476854 401.982197,484.235402 388.562743,470.523341 L382.286237,464.054711 C368.761913,450.109913 360.925256,443.124612 351.081975,437.229012 C338.568307,429.733993 325.246953,426.295033 309.42584,427.251526 C252.303605,430.704948 191.765128,458.910248 127.837444,512.097337 C125.290099,514.216699 121.506985,513.86975 119.387623,511.322404 C117.268261,508.775059 117.61521,504.991945 120.162556,502.872583 C185.906203,448.174633 248.743567,418.898266 308.701682,415.273396 C326.993171,414.167553 342.704286,418.223439 357.247948,426.934316 L358.226563,427.527077 C368.434553,433.780557 376.591104,441.017491 389.642393,454.406395 L395.931778,460.892513 L397.090755,462.080669 C409.692154,474.959181 417.495061,481.573475 426.840579,486.438716 C438.803082,492.666351 451.577524,494.352547 467.078052,490.911413 C485.453067,486.832141 500.138365,480.668166 512.295405,472.451447 C522.283653,465.700574 530.308857,457.84211 538.601368,447.39582 L539.687047,446.016317 C541.139122,444.155487 542.625291,442.18832 544.33855,439.870419 L551.136781,430.593726 L551.570699,430.00654 C563.436279,414.012575 572.147381,405.595804 585.238899,399.819743 C601.276933,392.743662 621.872845,391.701188 650.127475,397.106885 C701.367982,406.910259 745.733878,344.943112 781.460434,208.362654 Z" id="Path-9-Copy" fill="#009BA0" fill-rule="nonzero" blush:i="0.4.0.0.4"/><circle id="Oval" fill="#FF0057" cx="689.5" cy="200.5" r="25.5" blush:i="0.4.0.0.5"/><rect id="Rectangle" fill="#C7D2F2" fill-rule="nonzero" x="93" y="546" width="709" height="2" blush:i="0.4.0.0.6"/></g></g></g><g transform="translate(-67.000000, 557.000000) scale(1 1)" blush:has-customizable-colors="true" blush:width="1110" blush:height="1500" id="Master/Character/Sitting" blush:component="Master/Character/Sitting" blush:i="0.5" blush:value="Sitting" blush:viewBox="300 397.5 674.9999999999999 1102.4999999999998"><g id="Master/Character/Sitting" stroke="none" stroke-width="1" fill="none" fill-rule="evenodd" blush:has-customizable-colors="true" blush:viewBox="300 397.5 674.9999999999999 1102.4999999999998" blush:i="0.5.0"><g id="Sitting" transform="translate(179.000000, 940.000000) scale(1 1)" blush:width="752" blush:height="560" blush:component="Sitting" blush:i="0.5.0.0" blush:value="On Chair 1" blush:viewBox="176.72000000000003 -36.12903225806457 616.6399999999999 594.6236559139786"><g id="Sitting/On Chair 1" stroke="none" stroke-width="1" fill="none" fill-rule="evenodd" blush:viewBox="176.72000000000003 -36.12903225806457 616.6399999999999 594.6236559139786" blush:i="0.5.0.0.0"><path d="M410.615323,399.49997 C410.615323,399.49997 400.357969,471.949685 396.171539,502.905682 C391.949971,534.125643 467.0487,503.736716 467.0487,503.736716 C467.0487,503.736716 453.509565,484.44329 453.304761,479.157997 C453.100961,473.870697 476.218696,412 476.218696,412 L410.615323,399.49997 Z" id="Fill-3" fill="#ca8f67" blush:color="Skin-500" blush:i="0.5.0.0.0.0"/><path d="M561.035706,7.46069873e-14 C597.897949,16.8477074 635.153618,59.3884812 602.589029,139.128809 C570.024441,218.869137 493.394303,411.87247 481.349448,420.555326 C469.305594,429.239182 405.784608,412 405.784608,412 C405.784608,412 412.732597,330.944505 426.534884,251.242608 C436.641716,192.880271 457.952435,150.325862 457.952435,150.325862 C457.952435,150.325862 286.540837,174.784268 243.98254,146.076381 C188.124727,108.397247 229.480836,6.86053872 261.586066,-5.71064401 C302.858588,-21.8713886 490.854841,-32.0758202 561.035706,7.46069873e-14 Z" id="Fill-5" fill="#090E2B" blush:i="0.5.0.0.0.1"/><path d="M559.105053,537.550495 C553.718837,520.869499 514.662001,509.852921 486.4598,501.514412 C476.966506,498.70607 463.702961,484.835405 457.545853,485.001479 C448.581857,485.24512 457.367415,503.898122 427.362791,502.274176 C419.4193,501.844571 418.851908,493.484184 401.591555,491.580796 C398.786673,491.272515 394.499152,490.727553 390.796066,497.394383 C388.732001,501.110663 380.282268,534.66359 388.577622,548.345309 C446.664152,549.845942 506.41276,548.363209 558.020392,547.881892 C563.059757,547.834159 560.482433,541.818697 559.105053,537.550495" id="Fill-17" fill="#FF0057" blush:i="0.5.0.0.0.2"/><path d="M654.970564,412 C654.970564,412 665.530533,466.509706 672.596211,475.377601 C679.662889,484.243493 716.32892,494.221378 717.974942,499.698195 C719.618961,505.175012 639.820958,518 639.820958,518 L591,416.698422 L654.970564,412 Z" id="Fill-1" fill="#ca8f67" blush:color="Skin-500" blush:i="0.5.0.0.0.3"/><path d="M790.105053,534.5497 C784.718837,517.869641 745.662001,506.853025 717.4598,498.513492 C707.966506,495.706135 694.702961,481.834427 688.545853,482.001496 C679.581857,482.244144 688.367415,500.898205 658.362791,499.274253 C650.420302,498.844647 649.85291,490.483237 632.591555,488.580837 C629.786673,488.27156 625.499152,487.727591 621.796066,494.393449 C619.732001,498.109742 611.282268,531.662786 619.577622,545.345546 C677.664152,546.846185 737.41276,545.362452 789.020392,544.881134 C794.059757,544.8334 791.482433,538.817918 790.105053,534.5497" id="Fill-10" fill="#FF0057" blush:i="0.5.0.0.0.4"/><path d="M722.704751,510.429527 C726.392384,503.004274 728.005104,501.713139 726.433049,500.543939 C722.673012,497.748284 703.571309,506.385021 702.069675,511.523009 C700.944937,515.373796 713.664197,504.228541 723.820563,502.565701 C719.658833,506.366337 715.778784,518.019983 719.874061,515.696334 C739.826756,504.381943 742.973841,507.006496 742.998637,506.585624 C743.116665,504.585496 735.565843,502.966906 722.704751,510.429527" id="Fill-15" fill="#FFB201" blush:i="0.5.0.0.0.5"/><path d="M180.126096,77 C192.090433,138.955221 247.290014,161.21191 295.189049,159.361921 C368.355288,156.536045 442.938988,124.042498 468.151215,113.183029 C465.930109,129.164147 477.804596,220.024734 497.628146,262.074146 C517.451696,304.123559 582.008895,430.623213 582.008895,430.623213 C582.008895,430.623213 654.850327,431.050084 657.965073,413.369038 C660.014248,401.737852 591.630112,76.8494703 569.008895,20.5961921 C556.018259,-11.7082512 513.975789,-25.6487365 427.5,-33 C340.646127,-40.3834042 214.030282,-26.7715765 214.030282,-26.7715765 C214.030282,-26.7715765 168.16176,15.0447792 180.126096,77 Z" id="Fill-7" fill="#001386" blush:i="0.5.0.0.0.6"/><path d="M491.704751,514.429893 C495.392384,507.004835 497.005104,505.713735 495.432058,504.543583 C491.67202,501.748984 472.571309,510.385493 471.069675,515.522362 C469.944937,519.373048 482.664197,508.228087 492.820563,506.566274 C488.658833,510.36681 484.777792,522.019165 488.874061,519.69656 C508.826756,508.381485 511.973841,511.005969 511.998637,510.585107 C512.116665,508.585032 504.565843,506.966486 491.704751,514.429893" id="Fill-22" fill="#FFB201" blush:i="0.5.0.0.0.7"/><path d="M546.8316,554.3915 L407.0166,556.8575 C397.6626,557.2315 383.6706,554.0145 382.3176,546.2435 C381.3066,540.4375 383.5546,527.7955 384.0206,526.9545 C387.2776,521.0945 415.0326,526.0385 423.1176,545.8275 C474.1316,549.6495 561.0086,545.9125 561.0086,545.9125 C561.0086,545.9125 562.3126,553.5935 546.8316,554.3915" id="Fill-19" fill="#090E2B" blush:i="0.5.0.0.0.8"/><path d="M777.7223,550.7851 L637.9073,553.2511 C628.5543,553.6251 614.5613,550.4091 613.2083,542.6381 C612.1983,536.8321 614.4453,524.1901 614.9123,523.3491 C618.1683,517.4891 645.9233,522.4331 654.0083,542.2221 C705.0223,546.0441 791.9003,542.3071 791.9003,542.3071 C791.9003,542.3071 793.2033,549.9881 777.7223,550.7851" id="Fill-12" fill="#090E2B" blush:i="0.5.0.0.0.9"/></g></g><g id="Upper Body/Sitting" transform="translate(243.000000, 170.000000) scale(1 1.0010526315789474)" blush:width="600" blush:height="951" blush:component="Upper Body/Sitting" blush:i="0.5.0.1" blush:value="Reading Book 1" blush:viewBox="15.189873417721515 346.75 583.8607594936708 622.25"><g id="Upper Body/Sitting/Reading Book 1" stroke="none" stroke-width="1" fill="none" fill-rule="evenodd" blush:viewBox="15.189873417721515 346.75 583.8607594936708 622.25" blush:i="0.5.0.1.0"><path d="M459,586.835192 C459,586.835192 477.747127,576.82565 489.003701,569.661714 C514.007015,553.749045 524.307595,546.820919 526.267274,533.245081 C529.138804,513.380052 537.723397,513.254869 544.72225,513.254869 C548.821578,513.254869 558.433003,509.136852 561.715465,515.820619 C561.558491,521.017212 562.96626,534.245543 560.667637,536.608997 C557.1166,540.260498 526.504749,581.162253 500.905949,610.394851 C484.808536,628.777322 468.591037,639 468.591037,639 C468.591037,639 465.394025,621.611731 459,586.835192 Z" id="Fill-1" fill="#ca8f67" blush:color="Skin-500" blush:i="0.5.0.1.0.0"/><path d="M366.211468,542.746682 C371.031929,593.150552 385.461867,610.402764 387.45985,618.355772 C387.45985,618.355772 449.07185,584.537316 475.966956,572.798331 C486.73814,611.410755 492.252755,675.201635 493,678.947349 C486.273793,687.187718 369.516303,724.697377 356.830231,721.845666 C352.717956,720.921265 330.896112,722.636909 324.729337,691.157548 C311.553071,623.897035 315.773638,503.983167 333.202648,480 C333.202648,480 361.391006,492.342812 366.211468,542.746682 Z" id="Fill-3" fill="#FF0057" blush:i="0.5.0.1.0.1"/><polygon id="Fill-5" fill="#090E2B" points="510.969919 377.281843 454 521.593005 540.179285 528 595 392.763083 565.218314 348 553.78891 384.437785" blush:i="0.5.0.1.0.2"/><path d="M208.790041,448.406505 C205.996263,461.316702 156,471.803353 156,471.803353 C156,471.803353 252.987464,531.327979 269.715391,527.853615 C300.560547,521.448378 315.341479,490.273832 321,475.480856 C304.182843,471.025212 285.379589,464.806458 274.396404,459.875134 C263.412216,454.94381 268.561741,418.73679 267.890018,400.336817 C245.135624,395.831312 213.128272,387 213.128272,387 C213.128272,387 211.58382,435.496308 208.790041,448.406505 Z" id="Fill-8" fill="#ca8f67" blush:color="Skin-500" blush:i="0.5.0.1.0.3"/><path d="M181.312855,464 C181.312855,464 237.839397,505.314096 266.696933,505.992421 C280.837236,506.324091 296.733328,477.513738 299.528993,467.329863 C314.882133,472.44108 329.686323,478.286751 337.082486,483.047236 C342.981778,507.573849 348.969059,563.684059 347.868191,586.968906 C346.814318,609.286716 332.147078,652.366881 333.149958,671.170185 C333.831354,683.959326 334.198135,700.833325 337.779757,735.306821 C338.480609,742.052597 327.186879,767.629873 225,767.629873 C147.18877,767.629873 124.666695,813.744229 102.065692,803.52059 C100.040935,784.647355 145.485481,719.85278 146.65334,701.680849 C147.8202,683.507918 140.963023,650.469768 138.506318,625.831266 C136.050613,601.193763 117.206896,498.743299 121.294796,487.954485 C124.020062,480.761943 144.026082,472.777114 181.312855,464 Z" id="Fill-10" fill="#FF0057" blush:i="0.5.0.1.0.4"/><path d="M175.618135,899.320199 C181.881797,905.360124 184.925178,908.521854 187.253434,914.186343 C190.482821,922.041542 191.503878,931.882724 192.386906,934.72745 C195.66859,945.305557 184.84095,938.985163 182.010882,931.782454 C176.441172,944.987615 185.329778,971.383957 176.441172,968.826798 C149.999628,961.219228 152.726151,941.884277 150.455222,910.932779 C149.658687,900.080084 114.563877,866.761143 109.173185,856.523524 C106.308877,851.0817 139.841795,817.78872 145.595554,825.023849 C151.348307,832.258979 164.152859,888.260815 175.618135,899.320199 Z" id="Fill-12" fill="#ca8f67" blush:color="Skin-500" blush:i="0.5.0.1.0.5"/><path d="M140.304538,476 C140.304538,476 99.4531268,487.045798 88.5149257,532.694102 C77.5767246,578.341406 25.9818326,673.81939 20.5949742,707.479625 C12.0347737,760.963242 24.534572,814.963078 59.8565567,907 C73.8507543,896.869716 145.805583,838.84918 149.972851,823.091516 C133.448204,792.88174 115.75612,738.58778 117.973648,712.329676 C120.191176,686.070571 163.117548,632.607962 165.603867,600.989591 C167.994906,570.569393 159.561796,528.906196 140.304538,476 Z" id="Fill-15" fill="#FF0057" blush:i="0.5.0.1.0.6"/><path d="M538.847874,508.082556 C546.83495,522.301006 537.403477,521.610412 535.366586,529.293637 C531.371534,544.354152 561.347549,532.697774 561.347549,532.697774 C561.347549,532.697774 562.367004,521.611409 561.857276,517.212738 C560.861037,508.617691 557.74211,498.266763 549.454243,493.233305 C546.36156,491.354851 534.999178,501.231432 538.847874,508.082556" id="Fill-17" fill="#ca8f67" blush:color="Skin-500" blush:i="0.5.0.1.0.7"/><path d="M373.720806,642.745385 C373.322387,643.717771 370.094305,651.112734 369.010207,652.989528 C368.650895,653.611569 377.840005,626.345685 386.831465,618.082479 C387.234334,617.713875 386.822144,618.671011 386.558538,619.173284 C382.602454,626.718523 377.072087,634.56623 373.720806,642.745385 Z" id="Fill-19" fill="#090E2B" blush:i="0.5.0.1.0.8"/><path d="M333.699946,653.074671 C335.443776,640.667987 339.084492,628.614202 341.483124,616.399112 C345.25961,596.044288 344.133504,574.373636 338.999687,555.113462 C338.937372,554.887941 338.261183,552.058616 338.451096,552.001736 C338.641008,551.944857 339.69801,554.658427 339.762304,554.909894 C351.84053,595.67243 344.066983,614.726014 335.865144,653.420936 C334.060623,666.801978 333.883108,683.711695 334.783021,700.5276 C335.034231,705.221763 335.106604,710.350111 335.557059,712.754462 C335.697074,713.501807 335.727046,713.881154 335.656022,713.979165 C335.472973,714.231769 334.661243,712.233456 333.699946,705.459149 C331.461693,689.686073 331.405186,668.457615 333.699946,653.074671 Z" id="Fill-21" fill="#090E2B" blush:i="0.5.0.1.0.9"/><path d="M166.034626,557.921793 C172.614809,592.820294 162.180462,628.246502 142.079421,656.934218 C141.872859,657.237475 142.110207,656.413494 142.324713,656.063352 C157.692709,630.151834 167.001891,601.606767 165.512263,571.030677 C165.302722,566.722233 164.885626,560.520427 164.40398,556.25787 C164.279844,555.369047 165.898573,556.989078 166.034626,557.921793" id="Fill-23" fill="#090E2B" blush:i="0.5.0.1.0.10"/><path d="M138.870584,800.49312 C139.916681,803.568288 134.375696,792.007189 131.079256,783.179662 C128.154162,773.278257 123.614607,761.392143 123,752 C128.856671,767.664078 133.460155,784.588303 138.870584,800.49312 Z" id="Fill-25" fill="#090E2B" blush:i="0.5.0.1.0.11"/><path d="M534.710282,536.510255 C532.454763,529.677208 535.928745,525.430788 540.109478,521.812478 C540.586587,521.400002 541.506201,520.48306 541.94661,520.025084 C542.125919,519.839124 541.813439,520.735293 541.601623,521.126008 C539.867254,524.324918 536.276878,526.326957 535.233529,531.940383 C535.074144,532.795008 535.439053,538.718037 534.710282,536.510255" id="Fill-27" fill="#090E2B" blush:i="0.5.0.1.0.12"/><polygon id="Fill-29" fill="#FFB201" points="543.342219 354 530 380.50771 587.323352 390 588 389.103302" blush:i="0.5.0.1.0.13"/></g></g><g id="Head" transform="translate(341.000000, 346.000000) scale(1 1)" blush:width="300" blush:height="300" blush:component="Head" blush:i="0.5.0.2" blush:value="Short Gray" blush:viewBox="48 40.5 204.00000000000003 228.00000000000003"><g id="Head/Short Gray" stroke="none" stroke-width="1" fill="none" fill-rule="evenodd" blush:viewBox="48 40.5 204.00000000000003 228.00000000000003" blush:i="0.5.0.2.0"><path d="M240.4603,89.8187 C240.4603,89.8187 247.1233,114.1517 245.6803,124.1867 C243.8023,137.2407 233.4533,136.1067 234.8383,140.4027 C239.5723,155.0927 226.4003,160.2027 226.4003,160.2027 C226.4003,160.2027 223.6603,145.9857 223.9103,131.6937 C224.1613,117.4007 221.6543,107.1207 221.6543,107.1207 L240.4603,89.8187 Z" id="hair" fill="#E3E4E6" blush:i="0.5.0.2.0.0"/><path d="M192.5908,267.0274 C224.2428,264.4884 238.020209,246.70182 239.5388,229.4834 C241.504327,207.197431 236.0058,190.5654 233.1908,174.2604 C223.4298,117.7414 239.1068,106.6534 187.1538,96.2284 C159.9338,90.7674 99.9898,97.9554 85.2798,132.7664 C79.5308,146.3714 88.6708,170.3194 90.2748,189.9154 C94.4538,240.9794 154.1008,270.1154 192.5908,267.0274 Z" id="face" fill="#ca8f67" blush:color="Skin-500" blush:i="0.5.0.2.0.1"/><path d="M123.8589,41.6834 C86.5719,47.4364 78.1609,71.7324 76.2619,82.4054 C75.4829,79.1624 74.9369,75.5634 76.4449,72.9134 C76.9879,71.8554 75.3329,71.0214 74.8099,72.0874 C72.6969,76.5784 72.7039,81.6154 73.8029,86.3604 C69.7519,85.7334 65.5239,86.3634 61.9699,88.4944 C61.1589,88.9754 61.9019,90.2394 62.7189,89.7804 C65.1059,88.7554 67.7359,88.4754 70.3069,88.7714 C65.6579,90.4604 58.9819,94.3084 54.3399,103.0204 C49.3439,112.3974 47.7859,126.1464 49.9529,136.9844 C54.0639,157.5394 70.9269,165.4554 68.4039,170.3494 C61.0699,184.5724 69.3379,208.4314 79.1349,218.4284 C92.9599,232.5354 107.8639,235.3934 108.1179,219.3434 C108.3729,203.2944 103.6129,173.2844 107.7139,170.4274 C115.8699,180.5164 119.6079,181.7564 120.5419,175.2714 C122.4569,161.9584 118.0209,155.6414 113.1789,148.5664 C106.7739,139.2044 131.5549,136.0114 131.8529,120.6364 C135.6089,124.7334 138.4359,132.6264 153.2019,136.6944 C165.6119,140.1134 180.8789,140.2074 193.0839,122.5414 C202.3029,138.2494 224.0969,132.0104 230.7859,130.2904 C266.4129,121.1334 253.4839,53.9264 211.3139,60.7074 C184.4609,65.0254 158.9859,36.2624 123.8589,41.6834 Z" id="hair" fill="#E3E4E6" blush:i="0.5.0.2.0.2"/><path d="M113.767,179.4916 C109.26,169.7266 100.831,161.4866 86.463,164.4866 C71.599,167.5916 69.788,197.7756 96.185,208.6956 C104.335,212.0666 107.242,210.4316 109.479,208.2106 C114.731,202.9936 115.788,183.8716 113.767,179.4916" id="ear" fill="#ca8f67" blush:color="Skin-500" blush:i="0.5.0.2.0.3"/><path d="M89.6861,174.4214 C90.2851,174.4984 90.8771,174.6084 91.4611,174.7554 C92.6281,175.0464 93.7631,175.4654 94.8541,175.9824 C97.0271,177.0314 99.0231,178.5214 100.5801,180.3734 C101.0121,180.7984 101.3281,181.3184 101.6901,181.7984 C102.0461,182.2824 102.3891,182.7724 102.6541,183.3114 C102.9371,183.8354 103.2311,184.3534 103.4921,184.8844 L104.1211,186.5354 L104.4261,187.3594 L104.6281,188.2104 C104.7621,188.7754 104.8961,189.3394 105.0111,189.9034 C105.1831,191.0424 105.2721,192.1864 105.3561,193.3124 C105.3851,193.7104 105.0871,194.0564 104.6901,194.0854 C104.3601,194.1094 104.0661,193.9084 103.9581,193.6114 L103.9251,193.5194 C103.5551,192.4924 103.3001,191.4554 102.9281,190.4634 C102.7101,189.9784 102.5101,189.4924 102.3111,189.0094 L102.0121,188.2864 L101.6351,187.6054 L100.9011,186.2504 L100.0301,184.9974 C99.7641,184.5654 99.4291,184.1884 99.0891,183.8194 C98.7411,183.4584 98.4681,183.0324 98.0751,182.7194 C96.6741,181.3004 94.9981,180.2114 93.2291,179.3164 C92.7861,179.0924 92.3251,178.9044 91.8721,178.6934 C91.4061,178.5204 90.9431,178.3264 90.4701,178.1654 C89.5471,177.8334 88.5011,177.5664 87.6531,177.3764 L87.4811,177.3384 C86.6491,177.1514 86.1261,176.3264 86.3131,175.4954 C86.4731,174.7824 87.1041,174.2964 87.8041,174.2904 C88.5141,174.2844 89.0751,174.3324 89.6861,174.4214 Z" id="Fill-9" fill="#090E2B" blush:i="0.5.0.2.0.4"/><path d="M99.0443,183.8384 C98.9553,183.8094 98.7863,183.7934 98.6423,183.7684 C98.3093,183.7504 97.9563,183.7384 97.5883,183.7934 C96.8583,183.8794 96.1273,184.1034 95.4523,184.4294 C94.7723,184.7454 94.1523,185.1914 93.5983,185.7054 C93.0253,186.1984 92.5623,186.8304 92.1123,187.4554 L92.0493,187.5424 C91.3583,188.5044 90.0173,188.7224 89.0563,188.0304 C88.0943,187.3384 87.8763,185.9984 88.5683,185.0364 C88.6163,184.9694 88.6773,184.8954 88.7323,184.8354 C89.4763,184.0294 90.2533,183.2454 91.1863,182.6214 C92.0953,181.9834 93.0963,181.4544 94.1663,181.1164 C95.2323,180.7694 96.3473,180.5834 97.4833,180.6024 C98.0483,180.6024 98.6303,180.6854 99.2183,180.8124 C99.5263,180.9034 99.8173,180.9764 100.1563,181.1384 C100.4673,181.2904 100.8843,181.4634 101.3493,182.0784 C101.7863,182.7264 101.6163,183.6054 100.9693,184.0434 C100.3223,184.4804 99.4423,184.3114 99.0043,183.6644 C99.1613,183.9274 99.1723,183.8464 99.0443,183.8384 Z" id="Fill-11" fill="#090E2B" blush:i="0.5.0.2.0.5"/><path d="M145.0532,259.7084 C141.4982,257.8384 132.4912,252.7524 130.5242,250.3674 C129.4982,249.1244 130.9902,250.3784 132.7172,251.3724 C135.0152,252.6964 144.1192,257.8464 155.4622,261.5594 C156.4462,261.8814 162.7232,263.6464 162.9132,263.9644 C163.0902,264.2614 162.5602,264.8804 161.8432,264.8734 C157.0202,264.8304 149.4132,262.0014 145.0532,259.7084 Z" id="Fill-13" fill="#090E2B" blush:i="0.5.0.2.0.6"/></g></g><g id="Expressions" transform="translate(462.000000, 479.000000) scale(1 1)" blush:width="120" blush:height="120" blush:component="Expressions" blush:i="0.5.0.3" blush:value="Solemn" blush:viewBox="24 12.600000000000009 89.4 87.60000000000001"><g id="Expressions/Solemn" stroke="none" stroke-width="1" fill="none" fill-rule="evenodd" blush:viewBox="24 12.600000000000009 89.4 87.60000000000001" blush:i="0.5.0.3.0"><g id="eye1" transform="translate(24.000079, 12.999886)" blush:i="0.5.0.3.0.0"><path d="M4.87822092,23.1366138 C4.87822092,23.1366138 13.0082209,15.1016138 26.8302209,17.6006138 C38.0772209,19.6346138 42.2992209,28.8076138 42.2693796,30.3186138 C41.5022209,33.3806138 35.9152209,36.1726138 32.0652209,37.4256138 C28.2142209,38.6796138 8.96622092,40.2646138 4.87822092,23.1366138" id="white" fill="#FFF" blush:i="0.5.0.3.0.0.0"/><path d="M34.2308209,25.6942138 C34.3618209,30.5952138 29.8628209,34.6922138 24.1828209,34.8432138 C18.5028209,34.9952138 13.7928209,31.1442138 13.6618209,26.2432138 C13.5308209,21.3412138 16.5318209,17.0532138 23.7098209,17.0932138 C29.3908209,17.1252138 34.0998209,20.7922138 34.2308209,25.6942138" id="Fill-3" fill="#090E2B" blush:i="0.5.0.3.0.0.1"/><path d="M1.25032092,21.2440138 C2.46732092,21.3180138 3.78332092,22.1320138 4.93432092,22.1190138 L4.82132092,22.1840138 C14.0673209,13.2390138 33.9963209,13.0410138 40.0953209,24.3590138 C40.6603209,25.4080138 41.8153209,27.6770138 41.7353209,28.5680138 C41.7143209,28.7990138 41.1883209,28.1740138 41.0293209,28.0060138 C39.0393209,25.8850138 36.5713209,23.6590138 34.0683209,22.2170138 C25.2963209,17.1580138 14.2303209,16.9970138 5.36732092,23.1230138 C3.87232092,24.9010138 -2.44667908,22.3950138 1.25032092,21.2440138" id="Fill-5" fill="#090E2B" blush:i="0.5.0.3.0.0.2"/><path d="M39.3724209,11.7831138 C27.5314209,6.24511384 13.9354209,4.53011384 2.04642092,11.0711138 C1.30642092,11.4431138 -0.268579075,11.1581138 0.0394209246,10.3871138 C0.809420925,8.46011384 4.12842092,5.38411384 7.14142092,3.72811384 C17.0154209,-1.69688616 32.5884209,-1.43488616 40.2934209,6.05911384 C42.5904209,7.64911384 43.6434209,12.8471138 39.3724209,11.7831138" id="Fill-14" fill="#090E2B" blush:i="0.5.0.3.0.0.3"/></g><g id="eye2" transform="translate(82.117990, 14.377145)" blush:i="0.5.0.3.0.1"><path d="M0.206608889,28.3658549 C0.206608889,29.1698549 4.54561037,34.1568549 14.5696104,34.1398983 C22.2946104,34.1268549 30.8266104,27.1508549 31.1276104,23.7498549 C31.4286104,20.3478549 25.1726104,16.5478549 18.1416104,16.0408549 C8.30761037,15.3328549 0.202610369,22.9968549 0.206608889,28.3658549" id="white" fill="#FFF" blush:i="0.5.0.3.0.1.0"/><path d="M24.570912,22.2046549 C24.5739104,28.2416549 20.3149104,31.9926549 15.6719104,32.1166549 C11.0289104,32.2406549 6.95091037,29.3726549 6.20391037,24.7886549 C5.23291037,18.8266549 10.6589104,15.8296549 15.3009104,15.7056549 C19.9439104,15.5816549 24.5689104,17.5596549 24.570912,22.2046549" id="Fill-10" fill="#090E2B" blush:i="0.5.0.3.0.1.1"/><path d="M0.0201103689,26.4273549 C1.25211037,15.4753549 17.4011104,11.5293549 25.9761104,16.3743549 C28.2491104,17.6593549 29.8071104,19.1303549 30.6171104,21.7593549 C30.6751104,21.9523549 30.4141104,21.9123549 29.8821104,21.6013549 C28.3761104,20.7223549 27.2161104,20.1253549 25.5041104,19.5243549 C16.8261104,16.4773549 6.03811037,17.8623549 1.47411037,26.9423549 C1.09011037,27.7243549 -0.173889631,27.2703549 0.0201103689,26.4273549" id="Fill-12" fill="#090E2B" blush:i="0.5.0.3.0.1.2"/><path d="M1.31401037,6.80035493 C4.45201037,-0.809645071 16.6250104,-0.916645071 24.0670104,1.13235493 C25.9330104,1.64735493 27.5020104,2.29635493 28.5560104,2.99635493 C30.4970104,4.28435493 31.6110104,6.59335493 28.5170104,6.76235493 C27.4100104,6.82235493 25.6510104,6.35935493 24.5710104,6.20935493 C18.2020104,5.32435493 11.7630104,6.67135493 6.00701037,9.61035493 C3.79301037,11.0143549 -0.108989631,9.87635493 1.31401037,6.80035493" id="Fill-17" fill="#090E2B" blush:i="0.5.0.3.0.1.3"/></g><path d="M79.5163974,56.0474227 C79.9047316,56.0474227 82.4878873,60.4695558 83.4356699,62.0222568 C86.4544009,66.9676809 89.7813295,72.5049636 84.8702,75.6883 C82.4912,77.2313 75.0122,74.8407787 75.0122,73.0253 C75.0122,70.2632077 81.8382,75.1193 83.4442,72.3153 C84.3857451,70.8872578 80.8590997,63.6440183 79.5163974,59.348811 C78.7670658,56.9517537 79.1280631,56.0474227 79.5163974,56.0474227 Z" id="nose" fill="#090E2B" blush:i="0.5.0.3.0.2"/><g id="lips" transform="translate(64.983409, 85.182851)" fill="#090E2B" blush:i="0.5.0.3.0.3"><path d="M13.9913913,0.0106487718 C21.3673913,-0.273351228 25.7219447,6.09433298 28.1834064,7.50034313 C25.4045617,8.99868724 24.6333577,15 13.9913913,15 C3.34942485,15 1.28604989,8.30118086 0.174127969,6.09433298 C3.34942485,4.46843431 7.56239126,0.257648772 13.9913913,0.0106487718 Z" id="Fill-21" blush:i="0.5.0.3.0.3.0"/></g></g></g><g id="Facial Accesories" transform="translate(459.000000, 529.000000) scale(1 1)" fill="#000" blush:width="120" blush:height="110" blush:component="Facial Accesories" blush:i="0.5.0.4" blush:value="None" blush:viewBox="210 192.5 0 0"><g id="Facial Accesories/None" stroke="none" stroke-width="1" fill="none" fill-rule="evenodd" fill-opacity="0" blush:viewBox="210 192.5 0 0" blush:i="0.5.0.4.0"/></g><g id="Glass" transform="translate(462.000000, 484.000000) scale(1 1)" fill="#000" blush:width="120" blush:height="75" blush:component="Glass" blush:i="0.5.0.5" blush:value="None" blush:viewBox="210 131.25 0 0"><g id="Glass/None" stroke="none" stroke-width="1" fill="none" fill-rule="evenodd" fill-opacity="0" blush:viewBox="210 131.25 0 0" blush:i="0.5.0.5.0"/></g></g></g></g></svg>